<?xml version="1.0" encoding="UTF-8"?>
<svg id="Layer_1" xmlns="http://www.w3.org/2000/svg" version="1.1" xmlns:cc="http://creativecommons.org/ns#" xmlns:dc="http://purl.org/dc/elements/1.1/" xmlns:inkscape="http://www.inkscape.org/namespaces/inkscape" xmlns:rdf="http://www.w3.org/1999/02/22-rdf-syntax-ns#" xmlns:svg="http://www.w3.org/2000/svg" viewBox="0 0 1383 1250.9">
  <!-- Generator: Adobe Illustrator 29.4.0, SVG Export Plug-In . SVG Version: 2.1.0 Build 152)  -->
  <defs>
    <style>
      .st0 {
        fill: none;
        stroke: red;
        stroke-linecap: round;
        stroke-linejoin: round;
        stroke-width: .6px;
      }
    </style>
  </defs>
  <g id="p-1">
    <path class="st0" d="M37.1,1180.9h19.6c.3,0,0-.3,0,0v8.2c0,.2.1.3.3.3h17c.2,0,.3-.1.3-.3v-8.2c0-.3-.3,0,0,0h16.4c.3,0,0-.3,0,0v8.2c0,.2.1.3.3.3h17c.2,0,.3-.1.3-.3v-8.2c0-.3-.3,0,0,0h16.4c.3,0,0-.3,0,0v8.2c0,.2.1.3.3.3h17c.2,0,.3-.1.3-.3v-8.2c0-.3-.3,0,0,0h16.4c.3,0,0-.3,0,0v8.2c0,.2.1.3.3.3h17c.2,0,.3-.1.3-.3v-8.2c0-.3-.3,0,0,0h16.4c.3,0,0-.3,0,0v8.2c0,.2.1.3.3.3h17c.2,0,.3-.1.3-.3v-8.2c0-.3-.3,0,0,0h16.4c.3,0,0-.3,0,0v8.2c0,.2.1.3.3.3h17c.2,0,.3-.1.3-.3v-8.2c0-.3-.3,0,0,0h16.4c.3,0,0-.3,0,0v8.2c0,.2.1.3.3.3h17c.2,0,.3-.1.3-.3v-8.2c0-.3-.3,0,0,0h16.4c.3,0,0-.3,0,0v8.2c0,.2.1.3.3.3h17c.2,0,.3-.1.3-.3v-8.2c0-.3-.3,0,0,0h16.4c.3,0,0-.3,0,0v8.2c0,.2.1.3.3.3h17c.2,0,.3-.1.3-.3v-8.2c0-.3-.3,0,0,0h16.4c.3,0,0-.3,0,0v8.2c0,.2.1.3.3.3h17c.2,0,.3-.1.3-.3v-8.2c0-.3-.3,0,0,0h16.4c.3,0,0-.3,0,0v8.2c0,.2.1.3.3.3h17c.2,0,.3-.1.3-.3v-8.2c0-.3-.3,0,0,0h16.4c.3,0,0-.3,0,0v8.2c0,.2.1.3.3.3h17c.2,0,.3-.1.3-.3v-8.2c0-.3-.3,0,0,0h16.4c.3,0,0-.3,0,0v8.2c0,.2.1.3.3.3h17c.2,0,.3-.1.3-.3v-8.2c0-.3-.3,0,0,0h16.4c.3,0,0-.3,0,0v8.2c0,.2.1.3.3.3h17c.2,0,.3-.1.3-.3v-8.2c0-.3-.3,0,0,0h16.4c.3,0,0-.3,0,0v8.2c0,.2.1.3.3.3h17c.2,0,.3-.1.3-.3v-8.2c0-.3-.3,0,0,0h16.4c.3,0,0-.3,0,0v8.2c0,.2.1.3.3.3h17c.2,0,.3-.1.3-.3v-8.2c0-.3-.3,0,0,0h16.4c.3,0,0-.3,0,0v8.2c0,.2.1.3.3.3h17c.2,0,.3-.1.3-.3v-8.2c0-.3-.3,0,0,0h16.4c.3,0,0-.3,0,0v8.2c0,.2.1.3.3.3h17c.2,0,.3-.1.3-.3v-8.2c0-.3-.3,0,0,0h28.1c.2,0,.3-.1.3-.3v-18.4c0-.2-.1-.3-.3-.3h-8.2c-.3,0,0,.3,0,0v-16.4c0-.3-.3,0,0,0h8.2c.2,0,.3-.1.3-.3v-17c0-.2-.1-.3-.3-.3h-8.2c-.3,0,0,.3,0,0v-16.4c0-.3-.3,0,0,0h8.2c.2,0,.3-.1.3-.3v-17c0-.2-.1-.3-.3-.3h-8.2c-.3,0,0,.3,0,0v-16.4c0-.3-.3,0,0,0h8.2c.2,0,.3-.1.3-.3v-17c0-.2-.1-.3-.3-.3h-8.2c-.3,0,0,.3,0,0v-16.4c0-.3-.3,0,0,0h8.2c.2,0,.3-.1.3-.3v-17c0-.2-.1-.3-.3-.3h-8.2c-.3,0,0,.3,0,0v-16.4c0-.3-.3,0,0,0h8.2c.2,0,.3-.1.3-.3v-17c0-.2-.1-.3-.3-.3h-8.2c-.3,0,0,.3,0,0v-16.4c0-.3-.3,0,0,0h8.2c.2,0,.3-.1.3-.3v-26.9c0-.2-.1-.3-.3-.3h-28.3c-.2,0-.3.1-.3.3v8.2c0,.3.3,0,0,0h-16.4c-.3,0,0,.3,0,0v-8.2c0-.2-.1-.3-.3-.3h-17c-.2,0-.3.1-.3.3v8.2c0,.3.3,0,0,0h-16.4c-.3,0,0,.3,0,0v-8.2c0-.2-.1-.3-.3-.3h-17c-.2,0-.3.1-.3.3v8.2c0,.3.3,0,0,0h-16.4c-.3,0,0,.3,0,0v-8.2c0-.2-.1-.3-.3-.3h-17c-.2,0-.3.1-.3.3v8.2c0,.3.3,0,0,0h-16.4c-.3,0,0,.3,0,0v-8.2c0-.2-.1-.3-.3-.3h-17c-.2,0-.3.1-.3.3v8.2c0,.3.3,0,0,0h-16.4c-.3,0,0,.3,0,0v-8.2c0-.2-.1-.3-.3-.3h-17c-.2,0-.3.1-.3.3v8.2c0,.3.3,0,0,0h-16.4c-.3,0,0,.3,0,0v-8.2c0-.2-.1-.3-.3-.3h-17c-.2,0-.3.1-.3.3v8.2c0,.3.3,0,0,0h-16.4c-.3,0,0,.3,0,0v-8.2c0-.2-.1-.3-.3-.3h-17c-.2,0-.3.1-.3.3v8.2c0,.3.3,0,0,0h-16.4c-.3,0,0,.3,0,0v-8.2c0-.2-.1-.3-.3-.3h-17c-.2,0-.3.1-.3.3v8.2c0,.3.3,0,0,0h-16.4c-.3,0,0,.3,0,0v-8.2c0-.2-.1-.3-.3-.3h-17c-.2,0-.3.1-.3.3v8.2c0,.3.3,0,0,0h-16.4c-.3,0,0,.3,0,0v-8.2c0-.2-.1-.3-.3-.3h-17c-.2,0-.3.1-.3.3v8.2c0,.3.3,0,0,0h-16.4c-.3,0,0,.3,0,0v-8.2c0-.2-.1-.3-.3-.3h-17c-.2,0-.3.1-.3.3v8.2c0,.3.3,0,0,0h-16.4c-.3,0,0,.3,0,0v-8.2c0-.2-.1-.3-.3-.3h-17c-.2,0-.3.1-.3.3v8.2c0,.3.3,0,0,0h-16.4c-.3,0,0,.3,0,0v-8.2c0-.2-.1-.3-.3-.3h-17c-.2,0-.3.1-.3.3v8.2c0,.3.3,0,0,0h-16.4c-.3,0,0,.3,0,0v-8.2c0-.2-.1-.3-.3-.3h-17c-.2,0-.3.1-.3.3v8.2c0,.3.3,0,0,0h-16.4c-.3,0,0,.3,0,0v-8.2c0-.2-.1-.3-.3-.3h-17c-.2,0-.3.1-.3.3v8.2c0,.3.3,0,0,0h-16.4c-.3,0,0,.3,0,0v-8.2c0-.2-.1-.3-.3-.3h-17c-.2,0-.3.1-.3.3v8.2c0,.3.3,0,0,0h-16.4c-.3,0,0,.3,0,0v-8.2c0-.2-.1-.3-.3-.3h-17c-.2,0-.3.1-.3.3v8.2c0,.3.3,0,0,0h-16.4c-.3,0,0,.3,0,0v-8.2c0-.2-.1-.3-.3-.3h-28.3c-.2,0-.3.1-.3.3v26.9c0,.2.1.3.3.3h8.2c.3,0,0-.3,0,0v16.4c0,.3.3,0,0,0h-8.2c-.2,0-.3.1-.3.3v17c0,.2.1.3.3.3h8.2c.3,0,0-.3,0,0v16.4c0,.3.3,0,0,0h-8.2c-.2,0-.3.1-.3.3v17c0,.2.1.3.3.3h8.2c.3,0,0-.3,0,0v16.4c0,.3.3,0,0,0h-8.2c-.2,0-.3.1-.3.3v17c0,.2.1.3.3.3h8.2c.3,0,0-.3,0,0v16.4c0,.3.3,0,0,0h-8.2c-.2,0-.3.1-.3.3v17c0,.2.1.3.3.3h8.2c.3,0,0-.3,0,0v16.4c0,.3.3,0,0,0h-8.2c-.2,0-.3.1-.3.3v17c0,.2.1.3.3.3h8.2c.3,0,0-.3,0,0v16.4c0,.3.3,0,0,0h-8.2c-.2,0-.3.1-.3.3v18.4c0,.2.1.3.3.3h8.5"/>
  </g>
  <g id="p-2">
    <path class="st0" d="M693.9,1180.9h19.6c.3,0,0-.3,0,0v8.2c0,.2.1.3.3.3h17c.2,0,.3-.1.3-.3v-8.2c0-.3-.3,0,0,0h16.4c.3,0,0-.3,0,0v8.2c0,.2.1.3.3.3h17c.2,0,.3-.1.3-.3v-8.2c0-.3-.3,0,0,0h16.4c.3,0,0-.3,0,0v8.2c0,.2.1.3.3.3h17c.2,0,.3-.1.3-.3v-8.2c0-.3-.3,0,0,0h16.4c.3,0,0-.3,0,0v8.2c0,.2.1.3.3.3h17c.2,0,.3-.1.3-.3v-8.2c0-.3-.3,0,0,0h16.4c.3,0,0-.3,0,0v8.2c0,.2.1.3.3.3h17c.2,0,.3-.1.3-.3v-8.2c0-.3-.3,0,0,0h16.4c.3,0,0-.3,0,0v8.2c0,.2.1.3.3.3h17c.2,0,.3-.1.3-.3v-8.2c0-.3-.3,0,0,0h16.4c.3,0,0-.3,0,0v8.2c0,.2.1.3.3.3h17c.2,0,.3-.1.3-.3v-8.2c0-.3-.3,0,0,0h16.4c.3,0,0-.3,0,0v8.2c0,.2.1.3.3.3h17c.2,0,.3-.1.3-.3v-8.2c0-.3-.3,0,0,0h16.4c.3,0,0-.3,0,0v8.2c0,.2.1.3.3.3h17c.2,0,.3-.1.3-.3v-8.2c0-.3-.3,0,0,0h16.4c.3,0,0-.3,0,0v8.2c0,.2.1.3.3.3h17c.2,0,.3-.1.3-.3v-8.2c0-.3-.3,0,0,0h16.4c.3,0,0-.3,0,0v8.2c0,.2.1.3.3.3h17c.2,0,.3-.1.3-.3v-8.2c0-.3-.3,0,0,0h16.4c.3,0,0-.3,0,0v8.2c0,.2.1.3.3.3h17c.2,0,.3-.1.3-.3v-8.2c0-.3-.3,0,0,0h16.4c.3,0,0-.3,0,0v8.2c0,.2.1.3.3.3h17c.2,0,.3-.1.3-.3v-8.2c0-.3-.3,0,0,0h16.4c.3,0,0-.3,0,0v8.2c0,.2.1.3.3.3h17c.2,0,.3-.1.3-.3v-8.2c0-.3-.3,0,0,0h16.4c.3,0,0-.3,0,0v8.2c0,.2.1.3.3.3h17c.2,0,.3-.1.3-.3v-8.2c0-.3-.3,0,0,0h16.4c.3,0,0-.3,0,0v8.2c0,.2.1.3.3.3h17c.2,0,.3-.1.3-.3v-8.2c0-.3-.3,0,0,0h16.4c.3,0,0-.3,0,0v8.2c0,.2.1.3.3.3h17c.2,0,.3-.1.3-.3v-8.2c0-.3-.3,0,0,0h16.4c.3,0,0-.3,0,0v8.2c0,.2.1.3.3.3h17c.2,0,.3-.1.3-.3v-8.2c0-.3-.3,0,0,0h19.6c.2,0,.3-.1.3-.3v-18.1c0-.3-.3,0,0,0h8.2c.2,0,.3-.1.3-.3v-17c0-.2-.1-.3-.3-.3h-8.2c-.3,0,0,.3,0,0v-16.4c0-.3-.3,0,0,0h8.2c.2,0,.3-.1.3-.3v-17c0-.2-.1-.3-.3-.3h-8.2c-.3,0,0,.3,0,0v-16.4c0-.3-.3,0,0,0h8.2c.2,0,.3-.1.3-.3v-17c0-.2-.1-.3-.3-.3h-8.2c-.3,0,0,.3,0,0v-16.4c0-.3-.3,0,0,0h8.2c.2,0,.3-.1.3-.3v-17c0-.2-.1-.3-.3-.3h-8.2c-.3,0,0,.3,0,0v-16.4c0-.3-.3,0,0,0h8.2c.2,0,.3-.1.3-.3v-17c0-.2-.1-.3-.3-.3h-8.2c-.3,0,0,.3,0,0v-16.4c0-.3-.3,0,0,0h8.2c.2,0,.3-.1.3-.3v-17c0-.2-.1-.3-.3-.3h-8.2c-.3,0,0,.3,0,0v-26.6c0-.2-.1-.3-.3-.3h-19.8c-.2,0-.3.1-.3.3v8.2c0,.3.3,0,0,0h-16.4c-.3,0,0,.3,0,0v-8.2c0-.2-.1-.3-.3-.3h-17c-.2,0-.3.1-.3.3v8.2c0,.3.3,0,0,0h-16.4c-.3,0,0,.3,0,0v-8.2c0-.2-.1-.3-.3-.3h-17c-.2,0-.3.1-.3.3v8.2c0,.3.3,0,0,0h-16.4c-.3,0,0,.3,0,0v-8.2c0-.2-.1-.3-.3-.3h-17c-.2,0-.3.1-.3.3v8.2c0,.3.3,0,0,0h-16.4c-.3,0,0,.3,0,0v-8.2c0-.2-.1-.3-.3-.3h-17c-.2,0-.3.1-.3.3v8.2c0,.3.3,0,0,0h-16.4c-.3,0,0,.3,0,0v-8.2c0-.2-.1-.3-.3-.3h-17c-.2,0-.3.1-.3.3v8.2c0,.3.3,0,0,0h-16.4c-.3,0,0,.3,0,0v-8.2c0-.2-.1-.3-.3-.3h-17c-.2,0-.3.1-.3.3v8.2c0,.3.3,0,0,0h-16.4c-.3,0,0,.3,0,0v-8.2c0-.2-.1-.3-.3-.3h-17c-.2,0-.3.1-.3.3v8.2c0,.3.3,0,0,0h-16.4c-.3,0,0,.3,0,0v-8.2c0-.2-.1-.3-.3-.3h-17c-.2,0-.3.1-.3.3v8.2c0,.3.3,0,0,0h-16.4c-.3,0,0,.3,0,0v-8.2c0-.2-.1-.3-.3-.3h-17c-.2,0-.3.1-.3.3v8.2c0,.3.3,0,0,0h-16.4c-.3,0,0,.3,0,0v-8.2c0-.2-.1-.3-.3-.3h-17c-.2,0-.3.1-.3.3v8.2c0,.3.3,0,0,0h-16.4c-.3,0,0,.3,0,0v-8.2c0-.2-.1-.3-.3-.3h-17c-.2,0-.3.1-.3.3v8.2c0,.3.3,0,0,0h-16.4c-.3,0,0,.3,0,0v-8.2c0-.2-.1-.3-.3-.3h-17c-.2,0-.3.1-.3.3v8.2c0,.3.3,0,0,0h-16.4c-.3,0,0,.3,0,0v-8.2c0-.2-.1-.3-.3-.3h-17c-.2,0-.3.1-.3.3v8.2c0,.3.3,0,0,0h-16.4c-.3,0,0,.3,0,0v-8.2c0-.2-.1-.3-.3-.3h-17c-.2,0-.3.1-.3.3v8.2c0,.3.3,0,0,0h-16.4c-.3,0,0,.3,0,0v-8.2c0-.2-.1-.3-.3-.3h-17c-.2,0-.3.1-.3.3v8.2c0,.3.3,0,0,0h-16.4c-.3,0,0,.3,0,0v-8.2c0-.2-.1-.3-.3-.3h-17c-.2,0-.3.1-.3.3v8.2c0,.3.3,0,0,0h-16.4c-.3,0,0,.3,0,0v-8.2c0-.2-.1-.3-.3-.3h-17c-.2,0-.3.1-.3.3v8.2c0,.3.3,0,0,0h-16.4c-.3,0,0,.3,0,0v-8.2c0-.2-.1-.3-.3-.3h-19.8c-.2,0-.3.1-.3.3v26.6c0,.3.3,0,0,0h-8.2c-.2,0-.3.1-.3.3v17c0,.2.1.3.3.3h8.2c.3,0,0-.3,0,0v16.4c0,.3.3,0,0,0h-8.2c-.2,0-.3.1-.3.3v17c0,.2.1.3.3.3h8.2c.3,0,0-.3,0,0v16.4c0,.3.3,0,0,0h-8.2c-.2,0-.3.1-.3.3v17c0,.2.1.3.3.3h8.2c.3,0,0-.3,0,0v16.4c0,.3.3,0,0,0h-8.2c-.2,0-.3.1-.3.3v17c0,.2.1.3.3.3h8.2c.3,0,0-.3,0,0v16.4c0,.3.3,0,0,0h-8.2c-.2,0-.3.1-.3.3v17c0,.2.1.3.3.3h8.2c.3,0,0-.3,0,0v16.4c0,.3.3,0,0,0h-8.2c-.2,0-.3.1-.3.3v17c0,.2.1.3.3.3h8.2c.3,0,0-.3,0,0v18.1c0,.2.1.3.3.3"/>
  </g>
  <g id="p-3">
    <path class="st0" d="M693.9,935.1h19.6c.3,0,0-.3,0,0v8.2c0,.2.1.3.3.3h17c.2,0,.3-.1.3-.3v-8.2c0-.3-.3,0,0,0h16.4c.3,0,0-.3,0,0v8.2c0,.2.1.3.3.3h17c.2,0,.3-.1.3-.3v-8.2c0-.3-.3,0,0,0h16.4c.3,0,0-.3,0,0v8.2c0,.2.1.3.3.3h17c.2,0,.3-.1.3-.3v-8.2c0-.3-.3,0,0,0h16.4c.3,0,0-.3,0,0v8.2c0,.2.1.3.3.3h17c.2,0,.3-.1.3-.3v-8.2c0-.3-.3,0,0,0h16.4c.3,0,0-.3,0,0v8.2c0,.2.1.3.3.3h17c.2,0,.3-.1.3-.3v-8.2c0-.3-.3,0,0,0h16.4c.3,0,0-.3,0,0v8.2c0,.2.1.3.3.3h17c.2,0,.3-.1.3-.3v-8.2c0-.3-.3,0,0,0h16.4c.3,0,0-.3,0,0v8.2c0,.2.1.3.3.3h17c.2,0,.3-.1.3-.3v-8.2c0-.3-.3,0,0,0h16.4c.3,0,0-.3,0,0v8.2c0,.2.1.3.3.3h17c.2,0,.3-.1.3-.3v-8.2c0-.3-.3,0,0,0h16.4c.3,0,0-.3,0,0v8.2c0,.2.1.3.3.3h17c.2,0,.3-.1.3-.3v-8.2c0-.3-.3,0,0,0h16.4c.3,0,0-.3,0,0v8.2c0,.2.1.3.3.3h17c.2,0,.3-.1.3-.3v-8.2c0-.3-.3,0,0,0h16.4c.3,0,0-.3,0,0v8.2c0,.2.1.3.3.3h17c.2,0,.3-.1.3-.3v-8.2c0-.3-.3,0,0,0h16.4c.3,0,0-.3,0,0v8.2c0,.2.1.3.3.3h17c.2,0,.3-.1.3-.3v-8.2c0-.3-.3,0,0,0h16.4c.3,0,0-.3,0,0v8.2c0,.2.1.3.3.3h17c.2,0,.3-.1.3-.3v-8.2c0-.3-.3,0,0,0h16.4c.3,0,0-.3,0,0v8.2c0,.2.1.3.3.3h17c.2,0,.3-.1.3-.3v-8.2c0-.3-.3,0,0,0h16.4c.3,0,0-.3,0,0v8.2c0,.2.1.3.3.3h17c.2,0,.3-.1.3-.3v-8.2c0-.3-.3,0,0,0h16.4c.3,0,0-.3,0,0v8.2c0,.2.1.3.3.3h17c.2,0,.3-.1.3-.3v-8.2c0-.3-.3,0,0,0h16.4c.3,0,0-.3,0,0v8.2c0,.2.1.3.3.3h17c.2,0,.3-.1.3-.3v-8.2c0-.3-.3,0,0,0h16.4c.3,0,0-.3,0,0v8.2c0,.2.1.3.3.3h17c.2,0,.3-.1.3-.3v-8.2c0-.3-.3,0,0,0h19.6c.2,0,.3-.1.3-.3v-18.1c0-.3-.3,0,0,0h8.2c.2,0,.3-.1.3-.3v-17c0-.2-.1-.3-.3-.3h-8.2c-.3,0,0,.3,0,0v-16.4c0-.3-.3,0,0,0h8.2c.2,0,.3-.1.3-.3v-17c0-.2-.1-.3-.3-.3h-8.2c-.3,0,0,.3,0,0v-16.4c0-.3-.3,0,0,0h8.2c.2,0,.3-.1.3-.3v-17c0-.2-.1-.3-.3-.3h-8.2c-.3,0,0,.3,0,0v-16.4c0-.3-.3,0,0,0h8.2c.2,0,.3-.1.3-.3v-17c0-.2-.1-.3-.3-.3h-8.2c-.3,0,0,.3,0,0v-16.4c0-.3-.3,0,0,0h8.2c.2,0,.3-.1.3-.3v-17c0-.2-.1-.3-.3-.3h-8.2c-.3,0,0,.3,0,0v-16.4c0-.3-.3,0,0,0h8.2c.2,0,.3-.1.3-.3v-17c0-.2-.1-.3-.3-.3h-8.2c-.3,0,0,.3,0,0v-26.6c0-.2-.1-.3-.3-.3h-19.8c-.2,0-.3.1-.3.3v8.2c0,.3.3,0,0,0h-16.4c-.3,0,0,.3,0,0v-8.2c0-.2-.1-.3-.3-.3h-17c-.2,0-.3.1-.3.3v8.2c0,.3.3,0,0,0h-16.4c-.3,0,0,.3,0,0v-8.2c0-.2-.1-.3-.3-.3h-17c-.2,0-.3.1-.3.3v8.2c0,.3.3,0,0,0h-16.4c-.3,0,0,.3,0,0v-8.2c0-.2-.1-.3-.3-.3h-17c-.2,0-.3.1-.3.3v8.2c0,.3.3,0,0,0h-16.4c-.3,0,0,.3,0,0v-8.2c0-.2-.1-.3-.3-.3h-17c-.2,0-.3.1-.3.3v8.2c0,.3.3,0,0,0h-16.4c-.3,0,0,.3,0,0v-8.2c0-.2-.1-.3-.3-.3h-17c-.2,0-.3.1-.3.3v8.2c0,.3.3,0,0,0h-16.4c-.3,0,0,.3,0,0v-8.2c0-.2-.1-.3-.3-.3h-17c-.2,0-.3.1-.3.3v8.2c0,.3.3,0,0,0h-16.4c-.3,0,0,.3,0,0v-8.2c0-.2-.1-.3-.3-.3h-17c-.2,0-.3.1-.3.3v8.2c0,.3.3,0,0,0h-16.4c-.3,0,0,.3,0,0v-8.2c0-.2-.1-.3-.3-.3h-17c-.2,0-.3.1-.3.3v8.2c0,.3.3,0,0,0h-16.4c-.3,0,0,.3,0,0v-8.2c0-.2-.1-.3-.3-.3h-17c-.2,0-.3.1-.3.3v8.2c0,.3.3,0,0,0h-16.4c-.3,0,0,.3,0,0v-8.2c0-.2-.1-.3-.3-.3h-17c-.2,0-.3.1-.3.3v8.2c0,.3.3,0,0,0h-16.4c-.3,0,0,.3,0,0v-8.2c0-.2-.1-.3-.3-.3h-17c-.2,0-.3.1-.3.3v8.2c0,.3.3,0,0,0h-16.4c-.3,0,0,.3,0,0v-8.2c0-.2-.1-.3-.3-.3h-17c-.2,0-.3.1-.3.3v8.2c0,.3.3,0,0,0h-16.4c-.3,0,0,.3,0,0v-8.2c0-.2-.1-.3-.3-.3h-17c-.2,0-.3.1-.3.3v8.2c0,.3.3,0,0,0h-16.4c-.3,0,0,.3,0,0v-8.2c0-.2-.1-.3-.3-.3h-17c-.2,0-.3.1-.3.3v8.2c0,.3.3,0,0,0h-16.4c-.3,0,0,.3,0,0v-8.2c0-.2-.1-.3-.3-.3h-17c-.2,0-.3.1-.3.3v8.2c0,.3.3,0,0,0h-16.4c-.3,0,0,.3,0,0v-8.2c0-.2-.1-.3-.3-.3h-17c-.2,0-.3.1-.3.3v8.2c0,.3.3,0,0,0h-16.4c-.3,0,0,.3,0,0v-8.2c0-.2-.1-.3-.3-.3h-17c-.2,0-.3.1-.3.3v8.2c0,.3.3,0,0,0h-16.4c-.3,0,0,.3,0,0v-8.2c0-.2-.1-.3-.3-.3h-19.8c-.2,0-.3.1-.3.3v26.6c0,.3.3,0,0,0h-8.2c-.2,0-.3.1-.3.3v17c0,.2.1.3.3.3h8.2c.3,0,0-.3,0,0v16.4c0,.3.3,0,0,0h-8.2c-.2,0-.3.1-.3.3v17c0,.2.1.3.3.3h8.2c.3,0,0-.3,0,0v16.4c0,.3.3,0,0,0h-8.2c-.2,0-.3.1-.3.3v17c0,.2.1.3.3.3h8.2c.3,0,0-.3,0,0v16.4c0,.3.3,0,0,0h-8.2c-.2,0-.3.1-.3.3v17c0,.2.1.3.3.3h8.2c.3,0,0-.3,0,0v16.4c0,.3.3,0,0,0h-8.2c-.2,0-.3.1-.3.3v17c0,.2.1.3.3.3h8.2c.3,0,0-.3,0,0v16.4c0,.3.3,0,0,0h-8.2c-.2,0-.3.1-.3.3v17c0,.2.1.3.3.3h8.2c.3,0,0-.3,0,0v18.1c0,.2.1.3.3.3"/>
  </g>
  <g id="p-4">
    <path class="st0" d="M37.1,935.1h19.6c.3,0,0-.3,0,0v8.2c0,.2.1.3.3.3h17c.2,0,.3-.1.3-.3v-8.2c0-.3-.3,0,0,0h16.4c.3,0,0-.3,0,0v8.2c0,.2.1.3.3.3h17c.2,0,.3-.1.3-.3v-8.2c0-.3-.3,0,0,0h16.4c.3,0,0-.3,0,0v8.2c0,.2.1.3.3.3h17c.2,0,.3-.1.3-.3v-8.2c0-.3-.3,0,0,0h16.4c.3,0,0-.3,0,0v8.2c0,.2.1.3.3.3h17c.2,0,.3-.1.3-.3v-8.2c0-.3-.3,0,0,0h16.4c.3,0,0-.3,0,0v8.2c0,.2.1.3.3.3h17c.2,0,.3-.1.3-.3v-8.2c0-.3-.3,0,0,0h16.4c.3,0,0-.3,0,0v8.2c0,.2.1.3.3.3h17c.2,0,.3-.1.3-.3v-8.2c0-.3-.3,0,0,0h16.4c.3,0,0-.3,0,0v8.2c0,.2.1.3.3.3h17c.2,0,.3-.1.3-.3v-8.2c0-.3-.3,0,0,0h16.4c.3,0,0-.3,0,0v8.2c0,.2.1.3.3.3h17c.2,0,.3-.1.3-.3v-8.2c0-.3-.3,0,0,0h16.4c.3,0,0-.3,0,0v8.2c0,.2.1.3.3.3h17c.2,0,.3-.1.3-.3v-8.2c0-.3-.3,0,0,0h16.4c.3,0,0-.3,0,0v8.2c0,.2.1.3.3.3h17c.2,0,.3-.1.3-.3v-8.2c0-.3-.3,0,0,0h16.4c.3,0,0-.3,0,0v8.2c0,.2.1.3.3.3h17c.2,0,.3-.1.3-.3v-8.2c0-.3-.3,0,0,0h16.4c.3,0,0-.3,0,0v8.2c0,.2.1.3.3.3h17c.2,0,.3-.1.3-.3v-8.2c0-.3-.3,0,0,0h16.4c.3,0,0-.3,0,0v8.2c0,.2.1.3.3.3h17c.2,0,.3-.1.3-.3v-8.2c0-.3-.3,0,0,0h16.4c.3,0,0-.3,0,0v8.2c0,.2.1.3.3.3h17c.2,0,.3-.1.3-.3v-8.2c0-.3-.3,0,0,0h16.4c.3,0,0-.3,0,0v8.2c0,.2.1.3.3.3h17c.2,0,.3-.1.3-.3v-8.2c0-.3-.3,0,0,0h16.4c.3,0,0-.3,0,0v8.2c0,.2.1.3.3.3h17c.2,0,.3-.1.3-.3v-8.2c0-.3-.3,0,0,0h16.4c.3,0,0-.3,0,0v8.2c0,.2.1.3.3.3h17c.2,0,.3-.1.3-.3v-8.2c0-.3-.3,0,0,0h16.4c.3,0,0-.3,0,0v8.2c0,.2.1.3.3.3h17c.2,0,.3-.1.3-.3v-8.2c0-.3-.3,0,0,0h28.1c.2,0,.3-.1.3-.3v-18.4c0-.2-.1-.3-.3-.3h-8.2c-.3,0,0,.3,0,0v-16.4c0-.3-.3,0,0,0h8.2c.2,0,.3-.1.3-.3v-17c0-.2-.1-.3-.3-.3h-8.2c-.3,0,0,.3,0,0v-16.4c0-.3-.3,0,0,0h8.2c.2,0,.3-.1.3-.3v-17c0-.2-.1-.3-.3-.3h-8.2c-.3,0,0,.3,0,0v-16.4c0-.3-.3,0,0,0h8.2c.2,0,.3-.1.3-.3v-17c0-.2-.1-.3-.3-.3h-8.2c-.3,0,0,.3,0,0v-16.4c0-.3-.3,0,0,0h8.2c.2,0,.3-.1.3-.3v-17c0-.2-.1-.3-.3-.3h-8.2c-.3,0,0,.3,0,0v-16.4c0-.3-.3,0,0,0h8.2c.2,0,.3-.1.3-.3v-17c0-.2-.1-.3-.3-.3h-8.2c-.3,0,0,.3,0,0v-16.4c0-.3-.3,0,0,0h8.2c.2,0,.3-.1.3-.3v-26.9c0-.2-.1-.3-.3-.3h-28.3c-.2,0-.3.1-.3.3v8.2c0,.3.3,0,0,0h-16.4c-.3,0,0,.3,0,0v-8.2c0-.2-.1-.3-.3-.3h-17c-.2,0-.3.1-.3.3v8.2c0,.3.3,0,0,0h-16.4c-.3,0,0,.3,0,0v-8.2c0-.2-.1-.3-.3-.3h-17c-.2,0-.3.1-.3.3v8.2c0,.3.3,0,0,0h-16.4c-.3,0,0,.3,0,0v-8.2c0-.2-.1-.3-.3-.3h-17c-.2,0-.3.1-.3.3v8.2c0,.3.3,0,0,0h-16.4c-.3,0,0,.3,0,0v-8.2c0-.2-.1-.3-.3-.3h-17c-.2,0-.3.1-.3.3v8.2c0,.3.3,0,0,0h-16.4c-.3,0,0,.3,0,0v-8.2c0-.2-.1-.3-.3-.3h-17c-.2,0-.3.1-.3.3v8.2c0,.3.3,0,0,0h-16.4c-.3,0,0,.3,0,0v-8.2c0-.2-.1-.3-.3-.3h-17c-.2,0-.3.1-.3.3v8.2c0,.3.3,0,0,0h-16.4c-.3,0,0,.3,0,0v-8.2c0-.2-.1-.3-.3-.3h-17c-.2,0-.3.1-.3.3v8.2c0,.3.3,0,0,0h-16.4c-.3,0,0,.3,0,0v-8.2c0-.2-.1-.3-.3-.3h-17c-.2,0-.3.1-.3.3v8.2c0,.3.3,0,0,0h-16.4c-.3,0,0,.3,0,0v-8.2c0-.2-.1-.3-.3-.3h-17c-.2,0-.3.1-.3.3v8.2c0,.3.3,0,0,0h-16.4c-.3,0,0,.3,0,0v-8.2c0-.2-.1-.3-.3-.3h-17c-.2,0-.3.1-.3.3v8.2c0,.3.3,0,0,0h-16.4c-.3,0,0,.3,0,0v-8.2c0-.2-.1-.3-.3-.3h-17c-.2,0-.3.1-.3.3v8.2c0,.3.3,0,0,0h-16.4c-.3,0,0,.3,0,0v-8.2c0-.2-.1-.3-.3-.3h-17c-.2,0-.3.1-.3.3v8.2c0,.3.3,0,0,0h-16.4c-.3,0,0,.3,0,0v-8.2c0-.2-.1-.3-.3-.3h-17c-.2,0-.3.1-.3.3v8.2c0,.3.3,0,0,0h-16.4c-.3,0,0,.3,0,0v-8.2c0-.2-.1-.3-.3-.3h-17c-.2,0-.3.1-.3.3v8.2c0,.3.3,0,0,0h-16.4c-.3,0,0,.3,0,0v-8.2c0-.2-.1-.3-.3-.3h-17c-.2,0-.3.1-.3.3v8.2c0,.3.3,0,0,0h-16.4c-.3,0,0,.3,0,0v-8.2c0-.2-.1-.3-.3-.3h-17c-.2,0-.3.1-.3.3v8.2c0,.3.3,0,0,0h-16.4c-.3,0,0,.3,0,0v-8.2c0-.2-.1-.3-.3-.3h-17c-.2,0-.3.1-.3.3v8.2c0,.3.3,0,0,0h-16.4c-.3,0,0,.3,0,0v-8.2c0-.2-.1-.3-.3-.3h-28.3c-.2,0-.3.1-.3.3v26.9c0,.2.1.3.3.3h8.2c.3,0,0-.3,0,0v16.4c0,.3.3,0,0,0h-8.2c-.2,0-.3.1-.3.3v17c0,.2.1.3.3.3h8.2c.3,0,0-.3,0,0v16.4c0,.3.3,0,0,0h-8.2c-.2,0-.3.1-.3.3v17c0,.2.1.3.3.3h8.2c.3,0,0-.3,0,0v16.4c0,.3.3,0,0,0h-8.2c-.2,0-.3.1-.3.3v17c0,.2.1.3.3.3h8.2c.3,0,0-.3,0,0v16.4c0,.3.3,0,0,0h-8.2c-.2,0-.3.1-.3.3v17c0,.2.1.3.3.3h8.2c.3,0,0-.3,0,0v16.4c0,.3.3,0,0,0h-8.2c-.2,0-.3.1-.3.3v17c0,.2.1.3.3.3h8.2c.3,0,0-.3,0,0v16.4c0,.3.3,0,0,0h-8.2c-.2,0-.3.1-.3.3v18.4c0,.2.1.3.3.3h8.5"/>
  </g>
  <g id="p-5">
    <path class="st0" d="M37.1,689.4h19.6c.3,0,0-.3,0,0v8.2c0,.2.1.3.3.3h17c.2,0,.3-.1.3-.3v-8.2c0-.3-.3,0,0,0h16.4c.3,0,0-.3,0,0v8.2c0,.2.1.3.3.3h17c.2,0,.3-.1.3-.3v-8.2c0-.3-.3,0,0,0h16.4c.3,0,0-.3,0,0v8.2c0,.2.1.3.3.3h17c.2,0,.3-.1.3-.3v-8.2c0-.3-.3,0,0,0h16.4c.3,0,0-.3,0,0v8.2c0,.2.1.3.3.3h17c.2,0,.3-.1.3-.3v-8.2c0-.3-.3,0,0,0h16.4c.3,0,0-.3,0,0v8.2c0,.2.1.3.3.3h17c.2,0,.3-.1.3-.3v-8.2c0-.3-.3,0,0,0h16.4c.3,0,0-.3,0,0v8.2c0,.2.1.3.3.3h17c.2,0,.3-.1.3-.3v-8.2c0-.3-.3,0,0,0h16.4c.3,0,0-.3,0,0v8.2c0,.2.1.3.3.3h17c.2,0,.3-.1.3-.3v-8.2c0-.3-.3,0,0,0h16.4c.3,0,0-.3,0,0v8.2c0,.2.1.3.3.3h17c.2,0,.3-.1.3-.3v-8.2c0-.3-.3,0,0,0h16.4c.3,0,0-.3,0,0v8.2c0,.2.1.3.3.3h17c.2,0,.3-.1.3-.3v-8.2c0-.3-.3,0,0,0h16.4c.3,0,0-.3,0,0v8.2c0,.2.1.3.3.3h17c.2,0,.3-.1.3-.3v-8.2c0-.3-.3,0,0,0h16.4c.3,0,0-.3,0,0v8.2c0,.2.1.3.3.3h17c.2,0,.3-.1.3-.3v-8.2c0-.3-.3,0,0,0h16.4c.3,0,0-.3,0,0v8.2c0,.2.1.3.3.3h17c.2,0,.3-.1.3-.3v-8.2c0-.3-.3,0,0,0h16.4c.3,0,0-.3,0,0v8.2c0,.2.1.3.3.3h17c.2,0,.3-.1.3-.3v-8.2c0-.3-.3,0,0,0h16.4c.3,0,0-.3,0,0v8.2c0,.2.1.3.3.3h17c.2,0,.3-.1.3-.3v-8.2c0-.3-.3,0,0,0h16.4c.3,0,0-.3,0,0v8.2c0,.2.1.3.3.3h17c.2,0,.3-.1.3-.3v-8.2c0-.3-.3,0,0,0h16.4c.3,0,0-.3,0,0v8.2c0,.2.1.3.3.3h17c.2,0,.3-.1.3-.3v-8.2c0-.3-.3,0,0,0h16.4c.3,0,0-.3,0,0v8.2c0,.2.1.3.3.3h17c.2,0,.3-.1.3-.3v-8.2c0-.3-.3,0,0,0h16.4c.3,0,0-.3,0,0v8.2c0,.2.1.3.3.3h17c.2,0,.3-.1.3-.3v-8.2c0-.3-.3,0,0,0h19.6c.2,0,.3-.1.3-.3v-19.6c0-.3-.3,0,0,0h8.2c.2,0,.3-.1.3-.3v-17c0-.2-.1-.3-.3-.3h-8.2c-.3,0,0,.3,0,0v-16.4c0-.3-.3,0,0,0h8.2c.2,0,.3-.1.3-.3v-17c0-.2-.1-.3-.3-.3h-8.2c-.3,0,0,.3,0,0v-16.4c0-.3-.3,0,0,0h8.2c.2,0,.3-.1.3-.3v-17c0-.2-.1-.3-.3-.3h-8.2c-.3,0,0,.3,0,0v-16.4c0-.3-.3,0,0,0h8.2c.2,0,.3-.1.3-.3v-17c0-.2-.1-.3-.3-.3h-8.2c-.3,0,0,.3,0,0v-16.4c0-.3-.3,0,0,0h8.2c.2,0,.3-.1.3-.3v-17c0-.2-.1-.3-.3-.3h-8.2c-.3,0,0,.3,0,0v-16.4c0-.3-.3,0,0,0h8.2c.2,0,.3-.1.3-.3v-17c0-.2-.1-.3-.3-.3h-8.2c-.3,0,0,.3,0,0v-16.4c0-.3-.3,0,0,0h8.2c.2,0,.3-.1.3-.3v-17c0-.2-.1-.3-.3-.3h-8.2c-.3,0,0,.3,0,0v-16.4c0-.3-.3,0,0,0h8.2c.2,0,.3-.1.3-.3v-17c0-.2-.1-.3-.3-.3h-8.2c-.3,0,0,.3,0,0v-16.4c0-.3-.3,0,0,0h8.2c.2,0,.3-.1.3-.3v-17c0-.2-.1-.3-.3-.3h-8.2c-.3,0,0,.3,0,0v-16.4c0-.3-.3,0,0,0h8.2c.2,0,.3-.1.3-.3v-17c0-.2-.1-.3-.3-.3h-8.2c-.3,0,0,.3,0,0v-16.4c0-.3-.3,0,0,0h8.2c.2,0,.3-.1.3-.3v-17c0-.2-.1-.3-.3-.3h-8.2c-.3,0,0,.3,0,0v-16.4c0-.3-.3,0,0,0h8.2c.2,0,.3-.1.3-.3v-17c0-.2-.1-.3-.3-.3h-8.2c-.3,0,0,.3,0,0v-16.4c0-.3-.3,0,0,0h8.2c.2,0,.3-.1.3-.3v-17c0-.2-.1-.3-.3-.3h-8.2c-.3,0,0,.3,0,0v-16.4c0-.3-.3,0,0,0h8.2c.2,0,.3-.1.3-.3v-17c0-.2-.1-.3-.3-.3h-8.2c-.3,0,0,.3,0,0v-16.4c0-.3-.3,0,0,0h8.2c.2,0,.3-.1.3-.3v-17c0-.2-.1-.3-.3-.3h-8.2c-.3,0,0,.3,0,0v-16.4c0-.3-.3,0,0,0h8.2c.2,0,.3-.1.3-.3v-17c0-.2-.1-.3-.3-.3h-8.2c-.3,0,0,.3,0,0v-16.4c0-.3-.3,0,0,0h8.2c.2,0,.3-.1.3-.3v-17c0-.2-.1-.3-.3-.3h-8.2c-.3,0,0,.3,0,0v-16.4c0-.3-.3,0,0,0h8.2c.2,0,.3-.1.3-.3v-17c0-.2-.1-.3-.3-.3h-8.2c-.3,0,0,.3,0,0v-19.6c0-.2-.1-.3-.3-.3h-19.6c-.3,0,0,.3,0,0v-8.2c0-.2-.1-.3-.3-.3h-17c-.2,0-.3.1-.3.3v8.2c0,.3.3,0,0,0h-16.4c-.3,0,0,.3,0,0v-8.2c0-.2-.1-.3-.3-.3h-17c-.2,0-.3.1-.3.3v8.2c0,.3.3,0,0,0h-16.4c-.3,0,0,.3,0,0v-8.2c0-.2-.1-.3-.3-.3h-17c-.2,0-.3.1-.3.3v8.2c0,.3.3,0,0,0h-16.4c-.3,0,0,.3,0,0v-8.2c0-.2-.1-.3-.3-.3h-17c-.2,0-.3.1-.3.3v8.2c0,.3.3,0,0,0h-16.4c-.3,0,0,.3,0,0v-8.2c0-.2-.1-.3-.3-.3h-17c-.2,0-.3.1-.3.3v8.2c0,.3.3,0,0,0h-16.4c-.3,0,0,.3,0,0v-8.2c0-.2-.1-.3-.3-.3h-17c-.2,0-.3.1-.3.3v8.2c0,.3.3,0,0,0h-16.4c-.3,0,0,.3,0,0v-8.2c0-.2-.1-.3-.3-.3h-17c-.2,0-.3.1-.3.3v8.2c0,.3.3,0,0,0h-16.4c-.3,0,0,.3,0,0v-8.2c0-.2-.1-.3-.3-.3h-17c-.2,0-.3.1-.3.3v8.2c0,.3.3,0,0,0h-16.4c-.3,0,0,.3,0,0v-8.2c0-.2-.1-.3-.3-.3h-17c-.2,0-.3.1-.3.3v8.2c0,.3.3,0,0,0h-16.4c-.3,0,0,.3,0,0v-8.2c0-.2-.1-.3-.3-.3h-17c-.2,0-.3.1-.3.3v8.2c0,.3.3,0,0,0h-16.4c-.3,0,0,.3,0,0v-8.2c0-.2-.1-.3-.3-.3h-17c-.2,0-.3.1-.3.3v8.2c0,.3.3,0,0,0h-16.4c-.3,0,0,.3,0,0v-8.2c0-.2-.1-.3-.3-.3h-17c-.2,0-.3.1-.3.3v8.2c0,.3.3,0,0,0h-16.4c-.3,0,0,.3,0,0v-8.2c0-.2-.1-.3-.3-.3h-17c-.2,0-.3.1-.3.3v8.2c0,.3.3,0,0,0h-16.4c-.3,0,0,.3,0,0v-8.2c0-.2-.1-.3-.3-.3h-17c-.2,0-.3.1-.3.3v8.2c0,.3.3,0,0,0h-16.4c-.3,0,0,.3,0,0v-8.2c0-.2-.1-.3-.3-.3h-17c-.2,0-.3.1-.3.3v8.2c0,.3.3,0,0,0h-16.4c-.3,0,0,.3,0,0v-8.2c0-.2-.1-.3-.3-.3h-17c-.2,0-.3.1-.3.3v8.2c0,.3.3,0,0,0h-16.4c-.3,0,0,.3,0,0v-8.2c0-.2-.1-.3-.3-.3h-17c-.2,0-.3.1-.3.3v8.2c0,.3.3,0,0,0h-16.4c-.3,0,0,.3,0,0v-8.2c0-.2-.1-.3-.3-.3h-17c-.2,0-.3.1-.3.3v8.2c0,.3.3,0,0,0h-19.6c-.2,0-.3.1-.3.3v19.6c0,.3.3,0,0,0h-8.2c-.2,0-.3.1-.3.3v17c0,.2.1.3.3.3h8.2c.3,0,0-.3,0,0v16.4c0,.3.3,0,0,0h-8.2c-.2,0-.3.1-.3.3v17c0,.2.1.3.3.3h8.2c.3,0,0-.3,0,0v16.4c0,.3.3,0,0,0h-8.2c-.2,0-.3.1-.3.3v17c0,.2.1.3.3.3h8.2c.3,0,0-.3,0,0v16.4c0,.3.3,0,0,0h-8.2c-.2,0-.3.1-.3.3v17c0,.2.1.3.3.3h8.2c.3,0,0-.3,0,0v16.4c0,.3.3,0,0,0h-8.2c-.2,0-.3.1-.3.3v17c0,.2.1.3.3.3h8.2c.3,0,0-.3,0,0v16.4c0,.3.3,0,0,0h-8.2c-.2,0-.3.1-.3.3v17c0,.2.1.3.3.3h8.2c.3,0,0-.3,0,0v16.4c0,.3.3,0,0,0h-8.2c-.2,0-.3.1-.3.3v17c0,.2.1.3.3.3h8.2c.3,0,0-.3,0,0v16.4c0,.3.3,0,0,0h-8.2c-.2,0-.3.1-.3.3v17c0,.2.1.3.3.3h8.2c.3,0,0-.3,0,0v16.4c0,.3.3,0,0,0h-8.2c-.2,0-.3.1-.3.3v17c0,.2.1.3.3.3h8.2c.3,0,0-.3,0,0v16.4c0,.3.3,0,0,0h-8.2c-.2,0-.3.1-.3.3v17c0,.2.1.3.3.3h8.2c.3,0,0-.3,0,0v16.4c0,.3.3,0,0,0h-8.2c-.2,0-.3.1-.3.3v17c0,.2.1.3.3.3h8.2c.3,0,0-.3,0,0v16.4c0,.3.3,0,0,0h-8.2c-.2,0-.3.1-.3.3v17c0,.2.1.3.3.3h8.2c.3,0,0-.3,0,0v16.4c0,.3.3,0,0,0h-8.2c-.2,0-.3.1-.3.3v17c0,.2.1.3.3.3h8.2c.3,0,0-.3,0,0v16.4c0,.3.3,0,0,0h-8.2c-.2,0-.3.1-.3.3v17c0,.2.1.3.3.3h8.2c.3,0,0-.3,0,0v16.4c0,.3.3,0,0,0h-8.2c-.2,0-.3.1-.3.3v17c0,.2.1.3.3.3h8.2c.3,0,0-.3,0,0v16.4c0,.3.3,0,0,0h-8.2c-.2,0-.3.1-.3.3v17c0,.2.1.3.3.3h8.2c.3,0,0-.3,0,0v16.4c0,.3.3,0,0,0h-8.2c-.2,0-.3.1-.3.3v17c0,.2.1.3.3.3h8.2c.3,0,0-.3,0,0v16.4c0,.3.3,0,0,0h-8.2c-.2,0-.3.1-.3.3v17c0,.2.1.3.3.3h8.2c.3,0,0-.3,0,0v19.6c0,.2.1.3.3.3"/>
  </g>
  <g id="p-6">
    <path class="st0" d="M730.8,688.8h-8.2c-.3,0,0,.3,0,0v-7.9c0-.3-.3,0,0,0h16.4c.3,0,0-.3,0,0v7.9c0,.3.3,0,0,0h-8.2Z"/>
    <path class="st0" d="M764.8,688.8h-8.2c-.3,0,0,.3,0,0v-7.9c0-.3-.3,0,0,0h16.4c.3,0,0-.3,0,0v7.9c0,.3.3,0,0,0h-8.2Z"/>
    <path class="st0" d="M798.8,688.8h-8.2c-.3,0,0,.3,0,0v-7.9c0-.3-.3,0,0,0h16.4c.3,0,0-.3,0,0v7.9c0,.3.3,0,0,0h-8.2Z"/>
    <path class="st0" d="M832.8,688.8h-8.2c-.3,0,0,.3,0,0v-7.9c0-.3-.3,0,0,0h16.4c.3,0,0-.3,0,0v7.9c0,.3.3,0,0,0h-8.2Z"/>
    <path class="st0" d="M866.8,688.8h-8.2c-.3,0,0,.3,0,0v-7.9c0-.3-.3,0,0,0h16.4c.3,0,0-.3,0,0v7.9c0,.3.3,0,0,0h-8.2Z"/>
    <path class="st0" d="M900.9,688.8h-8.2c-.3,0,0,.3,0,0v-7.9c0-.3-.3,0,0,0h16.4c.3,0,0-.3,0,0v7.9c0,.3.3,0,0,0h-8.2Z"/>
    <path class="st0" d="M934.9,688.8h-8.2c-.3,0,0,.3,0,0v-7.9c0-.3-.3,0,0,0h16.4c.3,0,0-.3,0,0v7.9c0,.3.3,0,0,0h-8.2Z"/>
    <path class="st0" d="M968.9,688.8h-8.2c-.3,0,0,.3,0,0v-7.9c0-.3-.3,0,0,0h16.4c.3,0,0-.3,0,0v7.9c0,.3.3,0,0,0h-8.2Z"/>
    <path class="st0" d="M1002.9,688.8h-8.2c-.3,0,0,.3,0,0v-7.9c0-.3-.3,0,0,0h16.4c.3,0,0-.3,0,0v7.9c0,.3.3,0,0,0h-8.2Z"/>
    <path class="st0" d="M1036.9,688.8h-8.2c-.3,0,0,.3,0,0v-7.9c0-.3-.3,0,0,0h16.4c.3,0,0-.3,0,0v7.9c0,.3.3,0,0,0h-8.2Z"/>
    <path class="st0" d="M1070.9,688.8h-8.2c-.3,0,0,.3,0,0v-7.9c0-.3-.3,0,0,0h16.4c.3,0,0-.3,0,0v7.9c0,.3.3,0,0,0h-8.2Z"/>
    <path class="st0" d="M1104.9,688.8h-8.2c-.3,0,0,.3,0,0v-7.9c0-.3-.3,0,0,0h16.4c.3,0,0-.3,0,0v7.9c0,.3.3,0,0,0h-8.2Z"/>
    <path class="st0" d="M1139,688.8h-8.2c-.3,0,0,.3,0,0v-7.9c0-.3-.3,0,0,0h16.4c.3,0,0-.3,0,0v7.9c0,.3.3,0,0,0h-8.2Z"/>
    <path class="st0" d="M1173,688.8h-8.2c-.3,0,0,.3,0,0v-7.9c0-.3-.3,0,0,0h16.4c.3,0,0-.3,0,0v7.9c0,.3.3,0,0,0h-8.2Z"/>
    <path class="st0" d="M1207,688.8h-8.2c-.3,0,0,.3,0,0v-7.9c0-.3-.3,0,0,0h16.4c.3,0,0-.3,0,0v7.9c0,.3.3,0,0,0h-8.2Z"/>
    <path class="st0" d="M1241,688.8h-8.2c-.3,0,0,.3,0,0v-7.9c0-.3-.3,0,0,0h16.4c.3,0,0-.3,0,0v7.9c0,.3.3,0,0,0h-8.2Z"/>
    <path class="st0" d="M1275,688.8h-8.2c-.3,0,0,.3,0,0v-7.9c0-.3-.3,0,0,0h16.4c.3,0,0-.3,0,0v7.9c0,.3.3,0,0,0h-8.2Z"/>
    <path class="st0" d="M1309,688.8h-8.2c-.3,0,0,.3,0,0v-7.9c0-.3-.3,0,0,0h16.4c.3,0,0-.3,0,0v7.9c0,.3.3,0,0,0h-8.2Z"/>
    <path class="st0" d="M702.4,697.9h652c.2,0,.3-.1.3-.3V28.6c0-.2-.1-.3-.3-.3h-669c-.2,0-.3.1-.3.3v669c0,.2.1.3.3.3h17"/>
    <path class="st0" d="M1345.6,652.3v8.2c0,.3.3,0,0,0h-7.9c-.3,0,0,.3,0,0v-16.4c0-.3-.3,0,0,0h7.9c.3,0,0-.3,0,0v8.2Z"/>
    <path class="st0" d="M1345.6,618.2v8.2c0,.3.3,0,0,0h-7.9c-.3,0,0,.3,0,0v-16.4c0-.3-.3,0,0,0h7.9c.3,0,0-.3,0,0v8.2Z"/>
    <path class="st0" d="M1345.6,584.2v8.2c0,.3.3,0,0,0h-7.9c-.3,0,0,.3,0,0v-16.4c0-.3-.3,0,0,0h7.9c.3,0,0-.3,0,0v8.2Z"/>
    <path class="st0" d="M1345.6,550.2v8.2c0,.3.3,0,0,0h-7.9c-.3,0,0,.3,0,0v-16.4c0-.3-.3,0,0,0h7.9c.3,0,0-.3,0,0v8.2Z"/>
    <path class="st0" d="M1345.6,516.2v8.2c0,.3.3,0,0,0h-7.9c-.3,0,0,.3,0,0v-16.4c0-.3-.3,0,0,0h7.9c.3,0,0-.3,0,0v8.2Z"/>
    <path class="st0" d="M1345.6,482.2v8.2c0,.3.3,0,0,0h-7.9c-.3,0,0,.3,0,0v-16.4c0-.3-.3,0,0,0h7.9c.3,0,0-.3,0,0v8.2Z"/>
    <path class="st0" d="M1345.6,448.2v8.2c0,.3.3,0,0,0h-7.9c-.3,0,0,.3,0,0v-16.4c0-.3-.3,0,0,0h7.9c.3,0,0-.3,0,0v8.2Z"/>
    <path class="st0" d="M1345.6,414.1v8.2c0,.3.3,0,0,0h-7.9c-.3,0,0,.3,0,0v-16.4c0-.3-.3,0,0,0h7.9c.3,0,0-.3,0,0v8.2Z"/>
    <path class="st0" d="M1345.6,380.1v8.2c0,.3.3,0,0,0h-7.9c-.3,0,0,.3,0,0v-16.4c0-.3-.3,0,0,0h7.9c.3,0,0-.3,0,0v8.2Z"/>
    <path class="st0" d="M1345.6,346.1v8.2c0,.3.3,0,0,0h-7.9c-.3,0,0,.3,0,0v-16.4c0-.3-.3,0,0,0h7.9c.3,0,0-.3,0,0v8.2Z"/>
    <path class="st0" d="M1345.6,312.1v8.2c0,.3.3,0,0,0h-7.9c-.3,0,0,.3,0,0v-16.4c0-.3-.3,0,0,0h7.9c.3,0,0-.3,0,0v8.2Z"/>
    <path class="st0" d="M1345.6,278.1v8.2c0,.3.3,0,0,0h-7.9c-.3,0,0,.3,0,0v-16.4c0-.3-.3,0,0,0h7.9c.3,0,0-.3,0,0v8.2Z"/>
    <path class="st0" d="M1345.6,244.1v8.2c0,.3.3,0,0,0h-7.9c-.3,0,0,.3,0,0v-16.4c0-.3-.3,0,0,0h7.9c.3,0,0-.3,0,0v8.2Z"/>
    <path class="st0" d="M1345.6,210v8.2c0,.3.3,0,0,0h-7.9c-.3,0,0,.3,0,0v-16.4c0-.3-.3,0,0,0h7.9c.3,0,0-.3,0,0v8.2Z"/>
    <path class="st0" d="M1345.6,176v8.2c0,.3.3,0,0,0h-7.9c-.3,0,0,.3,0,0v-16.4c0-.3-.3,0,0,0h7.9c.3,0,0-.3,0,0v8.2Z"/>
    <path class="st0" d="M1345.6,142v8.2c0,.3.3,0,0,0h-7.9c-.3,0,0,.3,0,0v-16.4c0-.3-.3,0,0,0h7.9c.3,0,0-.3,0,0v8.2Z"/>
    <path class="st0" d="M1345.6,108v8.2c0,.3.3,0,0,0h-7.9c-.3,0,0,.3,0,0v-16.4c0-.3-.3,0,0,0h7.9c.3,0,0-.3,0,0v8.2Z"/>
    <path class="st0" d="M1345.6,74v8.2c0,.3.3,0,0,0h-7.9c-.3,0,0,.3,0,0v-16.4c0-.3-.3,0,0,0h7.9c.3,0,0-.3,0,0v8.2Z"/>
    <path class="st0" d="M1309,37.4h8.2c.3,0,0-.3,0,0v7.9c0,.3.3,0,0,0h-16.4c-.3,0,0,.3,0,0v-7.9c0-.3-.3,0,0,0h8.2Z"/>
    <path class="st0" d="M1275,37.4h8.2c.3,0,0-.3,0,0v7.9c0,.3.3,0,0,0h-16.4c-.3,0,0,.3,0,0v-7.9c0-.3-.3,0,0,0h8.2Z"/>
    <path class="st0" d="M1241,37.4h8.2c.3,0,0-.3,0,0v7.9c0,.3.3,0,0,0h-16.4c-.3,0,0,.3,0,0v-7.9c0-.3-.3,0,0,0h8.2Z"/>
    <path class="st0" d="M1207,37.4h8.2c.3,0,0-.3,0,0v7.9c0,.3.3,0,0,0h-16.4c-.3,0,0,.3,0,0v-7.9c0-.3-.3,0,0,0h8.2Z"/>
    <path class="st0" d="M1173,37.4h8.2c.3,0,0-.3,0,0v7.9c0,.3.3,0,0,0h-16.4c-.3,0,0,.3,0,0v-7.9c0-.3-.3,0,0,0h8.2Z"/>
    <path class="st0" d="M1139,37.4h8.2c.3,0,0-.3,0,0v7.9c0,.3.3,0,0,0h-16.4c-.3,0,0,.3,0,0v-7.9c0-.3-.3,0,0,0h8.2Z"/>
    <path class="st0" d="M1104.9,37.4h8.2c.3,0,0-.3,0,0v7.9c0,.3.3,0,0,0h-16.4c-.3,0,0,.3,0,0v-7.9c0-.3-.3,0,0,0h8.2Z"/>
    <path class="st0" d="M1070.9,37.4h8.2c.3,0,0-.3,0,0v7.9c0,.3.3,0,0,0h-16.4c-.3,0,0,.3,0,0v-7.9c0-.3-.3,0,0,0h8.2Z"/>
    <path class="st0" d="M1036.9,37.4h8.2c.3,0,0-.3,0,0v7.9c0,.3.3,0,0,0h-16.4c-.3,0,0,.3,0,0v-7.9c0-.3-.3,0,0,0h8.2Z"/>
    <path class="st0" d="M1002.9,37.4h8.2c.3,0,0-.3,0,0v7.9c0,.3.3,0,0,0h-16.4c-.3,0,0,.3,0,0v-7.9c0-.3-.3,0,0,0h8.2Z"/>
    <path class="st0" d="M968.9,37.4h8.2c.3,0,0-.3,0,0v7.9c0,.3.3,0,0,0h-16.4c-.3,0,0,.3,0,0v-7.9c0-.3-.3,0,0,0h8.2Z"/>
    <path class="st0" d="M934.9,37.4h8.2c.3,0,0-.3,0,0v7.9c0,.3.3,0,0,0h-16.4c-.3,0,0,.3,0,0v-7.9c0-.3-.3,0,0,0h8.2Z"/>
    <path class="st0" d="M900.9,37.4h8.2c.3,0,0-.3,0,0v7.9c0,.3.3,0,0,0h-16.4c-.3,0,0,.3,0,0v-7.9c0-.3-.3,0,0,0h8.2Z"/>
    <path class="st0" d="M866.8,37.4h8.2c.3,0,0-.3,0,0v7.9c0,.3.3,0,0,0h-16.4c-.3,0,0,.3,0,0v-7.9c0-.3-.3,0,0,0h8.2Z"/>
    <path class="st0" d="M832.8,37.4h8.2c.3,0,0-.3,0,0v7.9c0,.3.3,0,0,0h-16.4c-.3,0,0,.3,0,0v-7.9c0-.3-.3,0,0,0h8.2Z"/>
    <path class="st0" d="M798.8,37.4h8.2c.3,0,0-.3,0,0v7.9c0,.3.3,0,0,0h-16.4c-.3,0,0,.3,0,0v-7.9c0-.3-.3,0,0,0h8.2Z"/>
    <path class="st0" d="M764.8,37.4h8.2c.3,0,0-.3,0,0v7.9c0,.3.3,0,0,0h-16.4c-.3,0,0,.3,0,0v-7.9c0-.3-.3,0,0,0h8.2Z"/>
    <path class="st0" d="M730.8,37.4h8.2c.3,0,0-.3,0,0v7.9c0,.3.3,0,0,0h-16.4c-.3,0,0,.3,0,0v-7.9c0-.3-.3,0,0,0h8.2Z"/>
    <path class="st0" d="M694.2,74v-8.2c0-.3-.3,0,0,0h7.9c.3,0,0-.3,0,0v16.4c0,.3.3,0,0,0h-7.9c-.3,0,0,.3,0,0v-8.2Z"/>
    <path class="st0" d="M694.2,108v-8.2c0-.3-.3,0,0,0h7.9c.3,0,0-.3,0,0v16.4c0,.3.3,0,0,0h-7.9c-.3,0,0,.3,0,0v-8.2Z"/>
    <path class="st0" d="M694.2,142v-8.2c0-.3-.3,0,0,0h7.9c.3,0,0-.3,0,0v16.4c0,.3.3,0,0,0h-7.9c-.3,0,0,.3,0,0v-8.2Z"/>
    <path class="st0" d="M694.2,176v-8.2c0-.3-.3,0,0,0h7.9c.3,0,0-.3,0,0v16.4c0,.3.3,0,0,0h-7.9c-.3,0,0,.3,0,0v-8.2Z"/>
    <path class="st0" d="M694.2,210v-8.2c0-.3-.3,0,0,0h7.9c.3,0,0-.3,0,0v16.4c0,.3.3,0,0,0h-7.9c-.3,0,0,.3,0,0v-8.2Z"/>
    <path class="st0" d="M694.2,244.1v-8.2c0-.3-.3,0,0,0h7.9c.3,0,0-.3,0,0v16.4c0,.3.3,0,0,0h-7.9c-.3,0,0,.3,0,0v-8.2Z"/>
    <path class="st0" d="M694.2,278.1v-8.2c0-.3-.3,0,0,0h7.9c.3,0,0-.3,0,0v16.4c0,.3.3,0,0,0h-7.9c-.3,0,0,.3,0,0v-8.2Z"/>
    <path class="st0" d="M694.2,312.1v-8.2c0-.3-.3,0,0,0h7.9c.3,0,0-.3,0,0v16.4c0,.3.3,0,0,0h-7.9c-.3,0,0,.3,0,0v-8.2Z"/>
    <path class="st0" d="M694.2,346.1v-8.2c0-.3-.3,0,0,0h7.9c.3,0,0-.3,0,0v16.4c0,.3.3,0,0,0h-7.9c-.3,0,0,.3,0,0v-8.2Z"/>
    <path class="st0" d="M694.2,380.1v-8.2c0-.3-.3,0,0,0h7.9c.3,0,0-.3,0,0v16.4c0,.3.3,0,0,0h-7.9c-.3,0,0,.3,0,0v-8.2Z"/>
    <path class="st0" d="M694.2,414.1v-8.2c0-.3-.3,0,0,0h7.9c.3,0,0-.3,0,0v16.4c0,.3.3,0,0,0h-7.9c-.3,0,0,.3,0,0v-8.2Z"/>
    <path class="st0" d="M694.2,448.2v-8.2c0-.3-.3,0,0,0h7.9c.3,0,0-.3,0,0v16.4c0,.3.3,0,0,0h-7.9c-.3,0,0,.3,0,0v-8.2Z"/>
    <path class="st0" d="M694.2,482.2v-8.2c0-.3-.3,0,0,0h7.9c.3,0,0-.3,0,0v16.4c0,.3.3,0,0,0h-7.9c-.3,0,0,.3,0,0v-8.2Z"/>
    <path class="st0" d="M694.2,516.2v-8.2c0-.3-.3,0,0,0h7.9c.3,0,0-.3,0,0v16.4c0,.3.3,0,0,0h-7.9c-.3,0,0,.3,0,0v-8.2Z"/>
    <path class="st0" d="M694.2,550.2v-8.2c0-.3-.3,0,0,0h7.9c.3,0,0-.3,0,0v16.4c0,.3.3,0,0,0h-7.9c-.3,0,0,.3,0,0v-8.2Z"/>
    <path class="st0" d="M694.2,584.2v-8.2c0-.3-.3,0,0,0h7.9c.3,0,0-.3,0,0v16.4c0,.3.3,0,0,0h-7.9c-.3,0,0,.3,0,0v-8.2Z"/>
    <path class="st0" d="M694.2,618.2v-8.2c0-.3-.3,0,0,0h7.9c.3,0,0-.3,0,0v16.4c0,.3.3,0,0,0h-7.9c-.3,0,0,.3,0,0v-8.2Z"/>
    <path class="st0" d="M694.2,652.3v-8.2c0-.3-.3,0,0,0h7.9c.3,0,0-.3,0,0v16.4c0,.3.3,0,0,0h-7.9c-.3,0,0,.3,0,0v-8.2Z"/>
  </g>
</svg>